<svg stroke-linejoin="round" stroke-miterlimit="2" viewBox="0 0 11134 1767" xmlns="http://www.w3.org/2000/svg"><path d="m2030.48 1087.27-198.75 113.63s-643.319-1283.7-643.319-1283.7h-547.476l586.196 1172.36s-201.038 96.961-201.038 96.961c-146.656-292.481-610.689-1217.92-610.689-1217.92l-27.499-54.841h-547.461l990.761 1981.46 643.568-310.394s160.1 320.191 160.1 320.191l1058.66-605.264-701.129-1399.05h-555.889l593.96 1186.57v.001z"/><g><path d="m3218.34 793.257-442.599-883.118h-547.508l687.547 1374.41h185.963v581.414h491.293v-581.618s185.978-.381 185.978-.381l688.453-1373.83h-547.634l-442.599 883.118h-258.894z"/><path d="m6806.54 1358.23h-.208.208c-66.977 0-130.13-12.408-189.443-37.53l-.012-.005c-59.113-25.018-110.177-59.245-153.299-102.989-43.736-44.48-78.578-96.403-104.622-155.642v-.001c-9.117-20.736-15.924-42.181-21.778-63.943l-19.791-73.574h-492.987l19.687 116.02c12.616 74.352 33.008 146.097 63.016 214.754 51.378 117.689 121.545 220.442 210.267 308.195 88.53 87.619 191.416 157.092 308.823 208.266 118.265 51.682 245.033 77.688 380.139 77.688 135.153 0 261.233-25.539 378.577-76.221l.009-.004c116.715-50.437 219.879-120.427 309.519-210.127l70.663-70.711-347.097-342.878-69.837 67.797c-96.491 93.673-210.392 140.905-341.834 140.905zm-.623-959.341c131.442 0 245.342 47.232 341.834 140.905l69.836 67.798 347.098-342.878-70.664-70.712c-89.639-89.7-192.803-159.69-309.51-210.123l-.009-.004c-117.352-50.686-243.433-76.225-378.585-76.225-135.106 0-261.874 26.007-380.139 77.689-117.407 51.173-220.293 120.647-308.823 208.265-88.722 87.753-158.889 190.506-210.267 308.196-30.008 68.657-50.4 140.402-63.017 214.754l-19.687 116.019h492.988l19.791-73.573c5.854-21.762 12.661-43.208 21.777-63.942l.001-.001c26.043-59.241 60.885-111.164 104.622-155.643 43.122-43.745 94.185-77.971 153.286-102.984l.013-.005c59.325-25.128 122.478-37.536 189.455-37.536z" /><path d="m9025.15 1080.63-.004-.007 61.426-99.387-596.952-1193.96-1035.84 2071.68h547.341l320.962-637.379c.091-.184 167.669-336.411 167.669-336.411s486.785 973.691 486.785 973.691l62.608.011.143.088h325.29l.029-.034 160.798.028-316.202-632.432s-122.625-245.276-122.625-245.276l-61.43 99.392z" /><path d="m11065.6 1833.46 165.82 148.989v-2074.81h-491.294v925.123s-1164.96-1048.97-1164.96-1048.97v2072.61h488.78v-922.928s1001.65 899.982 1001.65 899.982z"/><path d="m5524.99 1284.55h99.392v-1367.35h-924.514l-245.769 491.293h681.502v382.194h-872.694l-247.053 493.861h779.233l337.256 581.414h564.348l-333.922-581.414h162.221z"/></g></svg>